<?xml version="1.0" encoding="UTF-8"?>
<svg width="165px" height="43px" viewBox="0 0 165 43" version="1.1" xmlns="http://www.w3.org/2000/svg" xmlns:xlink="http://www.w3.org/1999/xlink">
    <!-- Generator: Sketch 51.3 (57544) - http://www.bohemiancoding.com/sketch -->
    <title>header_logo</title>
    <desc>Created with Sketch.</desc>
    <defs>
        <polygon id="path-1" points="0 0 29 0 29 43 0 43"></polygon>
        <polygon id="path-3" points="0 0 113 0 113 25 0 25"></polygon>
    </defs>
    <g id="Page-1" stroke="none" stroke-width="1" fill="none" fill-rule="evenodd">
        <g id="Assets" transform="translate(-110.000000, -243.000000)">
            <g id="header_logo" transform="translate(110.000000, 243.000000)">
                <g id="Group-3">
                    <mask id="mask-2" fill="white">
                        <use xlink:href="#path-1"></use>
                    </mask>
                    <g id="Clip-2"></g>
                    <path d="M28.8502818,42.1357828 L22.0197167,35.356068 C21.9105277,35.2472782 21.7642477,35.2042587 21.620885,35.2154272 C21.4775223,35.2042587 21.3312424,35.2472782 21.2216366,35.356068 L14.4998437,42.0278203 L7.77805082,35.356068 C7.66844505,35.2472782 7.5221651,35.2042587 7.37880241,35.2154272 C7.23585648,35.2042587 7.08957653,35.2472782 6.97997076,35.356068 L0.14940559,42.1357828 C-0.0498018632,42.3330936 -0.0498018632,42.6544993 0.14940559,42.8513964 C0.348613042,43.0495345 0.671595837,43.0495345 0.870803289,42.8513964 L7.37880241,36.3918463 L13.8872183,42.8513964 C14.0543358,43.0176835 14.3048038,43.0358841 14.4998437,42.9229578 C14.6948837,43.0358841 14.9453516,43.0176835 15.1124691,42.8513964 L21.620885,36.3918463 L28.1293009,42.8513964 C28.3280916,43.0495345 28.6510744,43.0495345 28.8502818,42.8513964 C29.0499061,42.6544993 29.0499061,42.3330936 28.8502818,42.1357828 Z M14.7890696,10.3621261 C15.0707939,10.3621261 15.2995908,10.1354462 15.2995908,9.85581911 L15.2995908,4.62067141 L19.0836989,0.864320569 C19.2829063,0.666596122 19.2829063,0.346017782 19.0836989,0.148293335 C18.8849082,-0.0494311117 18.5610919,-0.0494311117 18.3623012,0.148293335 L14.4285791,4.05314434 C14.3331429,4.14787007 14.2789652,4.2769287 14.2789652,4.41095113 L14.2789652,9.85581911 C14.2789652,10.1354462 14.5073453,10.3621261 14.7890696,10.3621261 Z M7.25210981,4.62067141 L7.25210981,9.85581911 C7.25210981,10.1354462 7.48090665,10.3621261 7.762631,10.3621261 C8.04435535,10.3621261 8.27315219,10.1354462 8.27315219,9.85581911 L8.27315219,4.41095113 C8.27315219,4.2769287 8.21897443,4.14787007 8.12312147,4.05314434 L4.18939941,0.148293335 C3.99060871,-0.0494311117 3.66679241,-0.0494311117 3.46800171,0.148293335 C3.26879426,0.346017782 3.26879426,0.666596122 3.46800171,0.864320569 L7.25210981,4.62067141 Z M6.16688762,17.0475288 C6.16688762,19.9496935 8.53737295,22.3025317 11.4617217,22.3025317 C14.3856537,22.3025317 16.756139,19.9496935 16.756139,17.0475288 C16.756139,14.1449505 14.3856537,11.7921123 11.4617217,11.7921123 C8.53737295,11.7921123 6.16688762,14.1449505 6.16688762,17.0475288 Z M16.917422,27.5579482 C16.917422,30.4601129 19.2879074,32.8129511 22.2118393,32.8129511 C25.1361881,32.8129511 27.5066734,30.4601129 27.5066734,27.5579482 C27.5066734,24.6553699 25.1361881,22.3025317 22.2118393,22.3025317 C19.2879074,22.3025317 16.917422,24.6553699 16.917422,27.5579482 Z M6.16688762,22.3025317 L11.4617217,22.3025317 L16.756139,22.3025317 L16.756139,32.8129511 L6.16688762,32.8129511 L6.16688762,22.3025317 Z" id="Fill-1" fill="#655DC6" mask="url(#mask-2)"></path>
                </g>
                <g id="Group-3" transform="translate(52.000000, 13.000000)">
                    <mask id="mask-4" fill="white">
                        <use xlink:href="#path-3"></use>
                    </mask>
                    <g id="Clip-2"></g>
                    <path d="M112.100888,2.08563842 L111.51911,0.397949399 L110.932523,2.08563842 L112.100888,2.08563842 Z M112.235514,2.48838239 L110.797897,2.48838239 L110.485371,3.38976175 L110.033041,3.38976175 L111.230255,0 L111.807595,0 L113,3.38976175 L112.54804,3.38976175 L112.235514,2.48838239 Z M110.119957,0.397949399 L108.970824,0.397949399 L108.970824,3.38976175 L108.533288,3.38976175 L108.533288,0.397949399 L107.384156,0.397949399 L107.384156,0 L110.119957,0 L110.119957,0.397949399 Z M106.951058,2.99181235 L106.951058,3.38976175 L104.782982,3.38976175 L104.782982,0 L106.92258,0 L106.92258,0.397949399 L105.215709,0.397949399 L105.215709,1.44796046 L106.686614,1.44796046 L106.686614,1.84590986 L105.215709,1.84590986 L105.215709,2.99181235 L106.951058,2.99181235 Z M103.55692,2.43084753 C103.55692,2.03289813 103.364596,1.82193701 102.946293,1.82193701 L101.926979,1.82193701 L101.926979,3.03496349 L102.955909,3.03496349 C103.369404,3.03496349 103.55692,2.82879693 103.55692,2.43084753 Z M101.926979,0.354798259 L101.926979,1.47193332 L102.845323,1.47193332 C103.282859,1.47193332 103.422293,1.22261562 103.422293,0.89658479 C103.422293,0.575348528 103.258818,0.354798259 102.90302,0.354798259 L101.926979,0.354798259 Z M103.975223,2.47879324 C103.975223,3.06852548 103.624233,3.38976175 102.979949,3.38976175 L101.508305,3.38976175 L101.508305,0 L102.951101,0 C103.542495,0 103.840597,0.35959283 103.840597,0.843844508 C103.840597,1.17466991 103.744435,1.45754961 103.393445,1.60618131 C103.826172,1.7404293 103.975223,2.03289813 103.975223,2.47879324 Z M98.3027916,13.4963487 C98.3027916,10.3772959 97.0826474,8.89503577 94.7533148,8.89503577 C92.4014212,8.89503577 91.1812769,10.3772959 91.1812769,13.4963487 C91.1812769,16.6378992 92.4014212,18.1201593 94.7533148,18.1201593 C97.0826474,18.1201593 98.3027916,16.6378992 98.3027916,13.4963487 Z M89.1626207,13.4963487 C89.1626207,9.24909641 91.1812769,7.03695508 94.7533148,7.03695508 C98.3027916,7.03695508 100.321448,9.24909641 100.321448,13.4963487 C100.321448,17.7439699 98.3027916,19.9786088 94.7533148,19.9786088 C91.1812769,19.9786088 89.1626207,17.7439699 89.1626207,13.4963487 Z M83.7494559,14.315114 L83.7494559,12.7000811 C83.7494559,10.2002655 82.4849293,8.89503577 80.3775084,8.89503577 C78.1591316,8.89503577 76.9164264,10.3772959 76.9164264,13.5188464 C76.9164264,16.6378992 78.1365706,18.1201593 80.3553172,18.1201593 C82.4627382,18.1201593 83.7494559,16.8149296 83.7494559,14.315114 Z M85.745921,7.23611418 L85.745921,20.0224976 C85.745921,23.4517224 83.7494559,25 80.5772289,25 C78.8241268,25 77.0939557,24.4250203 75.8516203,23.2083057 L77.005191,21.8366895 C78.0037934,22.7878587 79.1573642,23.2304345 80.4880943,23.2304345 C82.5958851,23.2304345 83.904794,22.433798 83.904794,20.0224976 L83.904794,17.943129 C83.1059121,19.3368739 81.7526209,19.9786088 80.0446409,19.9786088 C76.9164264,19.9786088 74.8977701,17.7439699 74.8977701,13.5188464 C74.8977701,9.24909641 76.9389874,7.03695508 80.0668321,7.03695508 C81.6638562,7.03695508 82.9509438,7.61193479 83.7494559,8.80688943 L83.7494559,7.23611418 L85.745921,7.23611418 Z M73.5663002,18.2308033 C72.6568323,19.3368739 71.4807006,19.9786088 69.8171029,19.9786088 C66.7554619,19.9786088 65.2912149,18.2529321 65.2912149,15.376927 L65.2912149,9.02780851 L63.0506469,9.02780851 L63.0506469,7.23611418 L65.2912149,7.23611418 L65.2912149,4.13882127 L67.2880498,4.13882127 L67.2880498,7.23611418 L72.3905383,7.23611418 L72.3905383,9.02780851 L67.2880498,9.02780851 L67.2880498,15.376927 C67.2880498,17.1686214 68.1753266,18.1865457 69.8614852,18.1865457 C70.8375266,18.1865457 71.5476439,17.8546139 72.1020532,17.1247326 L73.5663002,18.2308033 Z M56.9499259,3.51958398 C56.9499259,2.61230361 57.4603227,1.92667994 58.4803765,1.92667994 C59.5011701,1.92667994 60.0337581,2.61230361 60.0337581,3.51958398 C60.0337581,4.42649554 59.5011701,5.11248801 58.4803765,5.11248801 C57.4603227,5.11248801 56.9499259,4.42649554 56.9499259,3.51958398 Z M54.5762109,17.9873866 L57.6156608,17.9873866 L57.6156608,9.02780851 L54.5762109,9.02780851 L54.5762109,7.23611418 L59.6121259,7.23611418 L59.6121259,17.9873866 L62.518059,17.9873866 L62.518059,19.7794497 L54.5762109,19.7794497 L54.5762109,17.9873866 Z M51.5804037,11.6825256 L51.5804037,19.7794497 L49.5839386,19.7794497 L49.5839386,11.6603968 C49.5839386,9.86870252 48.5191325,8.89503577 47.2102236,8.89503577 C45.9013148,8.89503577 44.7921264,9.8908313 44.7921264,11.8152984 L44.7921264,19.7794497 L42.7952914,19.7794497 L42.7952914,11.6603968 C42.7952914,9.86870252 41.7526765,8.89503577 40.4437677,8.89503577 C39.0904765,8.89503577 38.0034792,9.8908313 38.0034792,11.8152984 L38.0034792,19.7794497 L36.0070141,19.7794497 L36.0070141,7.23611418 L37.8481411,7.23611418 L37.8481411,8.67374788 C38.5578885,7.589806 39.6896379,7.03695508 41.0203681,7.03695508 C42.5737496,7.03695508 43.7491416,7.78896511 44.3483031,9.22696762 C45.0136682,7.76683632 46.2781947,7.03695508 47.8090152,7.03695508 C50.0717743,7.03695508 51.5804037,8.62985911 51.5804037,11.6825256 Z M33.5219735,8.32005606 L32.257447,9.78018736 C31.724859,9.20483883 30.9929204,8.89503577 30.1496562,8.89503577 C28.552632,8.89503577 27.221532,9.93508888 27.221532,12.1914878 L27.221532,19.7794497 L25.224697,19.7794497 L25.224697,7.23611418 L27.0661938,7.23611418 L27.0661938,8.8507782 C27.8203236,7.63406358 29.0626589,7.03695508 30.5712883,7.03695508 C31.8136237,7.03695508 32.8118562,7.54554843 33.5219735,8.32005606 Z M19.8115322,13.4963487 C19.8115322,10.3772959 18.5910181,8.89503577 16.2616855,8.89503577 C13.9101618,8.89503577 12.6900176,10.3772959 12.6900176,13.4963487 C12.6900176,16.6378992 13.9101618,18.1201593 16.2616855,18.1201593 C18.5910181,18.1201593 19.8115322,16.6378992 19.8115322,13.4963487 Z M10.6713613,13.4963487 C10.6713613,9.24909641 12.6900176,7.03695508 16.2616855,7.03695508 C19.8115322,7.03695508 21.8301885,9.24909641 21.8301885,13.4963487 C21.8301885,17.7439699 19.8115322,19.9786088 16.2616855,19.9786088 C12.6900176,19.9786088 10.6713613,17.7439699 10.6713613,13.4963487 Z M4.0598736,7.23611418 L9.16236208,7.23611418 L9.16236208,9.02780851 L4.0598736,9.02780851 L4.0598736,17.9873866 L8.40823233,17.9873866 L8.40823233,19.7794497 L0,19.7794497 L0,17.9873866 L2.06303862,17.9873866 L2.06303862,9.02780851 L0.0443823295,9.02780851 L0.0443823295,7.23611418 L2.06303862,7.23611418 L2.06303862,6.24068747 C2.06303862,3.51958398 3.63824146,1.72752084 6.58892667,1.72752084 C8.25289418,1.72752084 9.42828621,2.43527329 10.3377541,3.4753264 L8.87387694,4.58139706 C8.31909782,3.89540459 7.63154157,3.51958398 6.65513032,3.51958398 C4.902768,3.51958398 4.0598736,4.60352585 4.0598736,6.24068747 L4.0598736,7.23611418 Z" id="Fill-1" fill="#FFFFFF" mask="url(#mask-4)"></path>
                </g>
            </g>
        </g>
    </g>
</svg>